<svg width="48" height="48" viewBox="0 0 48 48" fill="none" xmlns="http://www.w3.org/2000/svg">
<path d="M20.625 32.6235C20.6242 32.0272 20.387 31.4556 19.9653 31.0339C19.5437 30.6123 18.972 30.3751 18.3757 30.3743C17.7792 30.3751 17.2073 30.6123 16.7854 31.0341C16.3635 31.4559 16.126 32.0277 16.125 32.6243H12.375V34.1243H16.1257C16.1289 34.7189 16.3672 35.2882 16.7886 35.7078C17.21 36.1274 17.7803 36.3632 18.375 36.3638C18.9696 36.363 19.5398 36.1271 19.9612 35.7076C20.3825 35.288 20.6209 34.7189 20.6243 34.1243H36.375V32.6243L20.625 32.6235ZM19.125 34.1138C19.125 34.2123 19.1057 34.3098 19.0681 34.4008C19.0304 34.4918 18.9752 34.5745 18.9056 34.6442C18.836 34.7139 18.7533 34.7692 18.6624 34.8069C18.5714 34.8446 18.4739 34.8641 18.3754 34.8641C18.2769 34.8642 18.1793 34.8448 18.0883 34.8072C17.9973 34.7695 17.9146 34.7143 17.8449 34.6447C17.7753 34.5751 17.72 34.4925 17.6822 34.4015C17.6445 34.3105 17.625 34.213 17.625 34.1145V32.6243C17.6249 32.4254 17.7038 32.2345 17.8444 32.0938C17.985 31.9531 18.1757 31.874 18.3746 31.8739C18.5735 31.8738 18.7643 31.9527 18.9051 32.0933C19.0458 32.2339 19.1249 32.4246 19.125 32.6235V34.1138ZM32.625 23.6235C32.6242 23.0272 32.387 22.4556 31.9653 22.0339C31.5437 21.6123 30.972 21.3751 30.3757 21.3743C29.7792 21.3751 29.2073 21.6123 28.7854 22.0341C28.3635 22.4559 28.126 23.0277 28.125 23.6243H12.375V25.1243H28.125V25.125C28.125 26.3648 29.1345 27.3743 30.375 27.3743C31.6155 27.3743 32.625 26.3648 32.625 25.1243H36.375V23.6243L32.625 23.6235ZM31.125 25.1243C31.125 25.2228 31.1057 25.3203 31.0681 25.4113C31.0304 25.5023 30.9752 25.585 30.9056 25.6547C30.836 25.7244 30.7533 25.7797 30.6624 25.8174C30.5714 25.8551 30.4739 25.8746 30.3754 25.8746C30.2769 25.8747 30.1793 25.8553 30.0883 25.8177C29.9973 25.78 29.9146 25.7248 29.8449 25.6552C29.7753 25.5856 29.72 25.503 29.6822 25.412C29.6445 25.321 29.625 25.2235 29.625 25.125V23.6243C29.625 23.5258 29.6443 23.4282 29.6819 23.3372C29.7196 23.2462 29.7748 23.1635 29.8444 23.0938C29.914 23.0241 29.9967 22.9689 30.0876 22.9311C30.1786 22.8934 30.2761 22.8739 30.3746 22.8739C30.4731 22.8738 30.5707 22.8932 30.6617 22.9308C30.7527 22.9685 30.8354 23.0237 30.9051 23.0933C30.9747 23.1629 31.03 23.2456 31.0678 23.3365C31.1055 23.4275 31.125 23.525 31.125 23.6235V25.1243ZM20.625 14.6363V14.634C20.6242 14.0377 20.387 13.4661 19.9653 13.0444C19.5437 12.6228 18.972 12.3856 18.3757 12.3848C17.7792 12.3856 17.2073 12.6228 16.7854 13.0446C16.3635 13.4664 16.126 14.0382 16.125 14.6348V14.6363H12.375V16.1363H16.1265C16.1299 16.7306 16.3682 17.2995 16.7894 17.7188C17.2107 18.138 17.7807 18.3737 18.375 18.3743C18.9693 18.3735 19.5392 18.1378 19.9604 17.7185C20.3816 17.2993 20.6199 16.7305 20.6235 16.1363L36.375 16.1363V14.6363L20.625 14.6363ZM19.125 16.1243C19.125 16.2228 19.1057 16.3203 19.0681 16.4113C19.0304 16.5023 18.9752 16.585 18.9056 16.6547C18.836 16.7244 18.7533 16.7797 18.6624 16.8174C18.5714 16.8551 18.4739 16.8746 18.3754 16.8746C18.2769 16.8747 18.1793 16.8553 18.0883 16.8177C17.9973 16.78 17.9146 16.7248 17.8449 16.6552C17.7753 16.5856 17.72 16.503 17.6822 16.412C17.6445 16.321 17.625 16.2235 17.625 16.125V14.6348C17.6249 14.4359 17.7038 14.245 17.8444 14.1043C17.985 13.9636 18.1757 13.8845 18.3746 13.8844C18.5735 13.8843 18.7643 13.9632 18.9051 14.1038C19.0458 14.2444 19.1249 14.4351 19.125 14.634V16.1243Z" fill="black"/>
</svg>
